<svg width="82" height="32" viewBox="0 0 82 32" fill="none" xmlns="http://www.w3.org/2000/svg">
<path fill-rule="evenodd" clip-rule="evenodd" d="M71.6216 13.8022V12.6875C69.0549 12.6868 66.7154 13.707 64.9851 15.3511L65.7568 16.157L66.8535 15.9839C65.8218 9.38559 60.1193 4.33869 53.231 4.33609C51.2327 4.33609 49.3318 4.77159 47.626 5.53589L48.0809 6.5531L48.9418 5.84628C46.0095 2.28028 41.5662 0 36.5866 0C30.4375 0.0008 25.1086 3.48408 22.4362 8.57648L23.4272 9.0939L23.6464 8.00049C22.8748 7.84779 22.0788 7.76419 21.2583 7.76419C14.6947 7.76419 9.35779 13.0027 9.18719 19.5289L10.3002 19.559L10.8688 18.6029C9.79654 17.957 8.52931 17.576 7.18091 17.5769C3.21691 17.5777 0 20.7928 0 24.7617C0 28.7299 3.21691 31.9451 7.18091 31.9459C9.78031 31.9459 67.9907 31.9459 71.6216 31.9459C76.9423 31.9451 81.2477 27.6357 81.2477 22.3167C81.2477 16.9986 76.9423 12.6875 71.6216 12.6875V14.9166C73.6688 14.9166 75.5128 15.7428 76.8612 17.0838C78.1934 18.4266 79.0219 20.2689 79.0219 22.3167C79.0219 24.3645 78.1934 26.2077 76.8612 27.5504C75.5128 28.8908 73.6688 29.717 71.6216 29.717C67.9907 29.717 9.78031 29.717 7.18091 29.717C5.81621 29.717 4.58151 29.1646 3.67981 28.2654C2.77821 27.3661 2.22583 26.1337 2.22583 24.7617C2.22583 23.3899 2.77821 22.1575 3.67981 21.2566C4.58151 20.3582 5.81621 19.8058 7.18091 19.8058C8.11511 19.8058 8.97603 20.0642 9.73163 20.5142C10.0646 20.7172 10.487 20.7255 10.8362 20.5361C11.1856 20.346 11.3968 19.9829 11.413 19.5891C11.5592 14.2659 15.9052 9.99058 21.2583 9.99228C21.9244 9.99228 22.5743 10.0605 23.2078 10.1865C23.6953 10.2831 24.1826 10.0491 24.4181 9.6105C26.7089 5.224 31.2984 2.2291 36.5866 2.2291C40.8756 2.2298 44.6936 4.18658 47.2198 7.25958C47.5365 7.64788 48.0727 7.77559 48.5358 7.57089C49.9735 6.92829 51.5576 6.56589 53.231 6.56509C59.0066 6.56309 63.7828 10.8014 64.652 16.3308C64.717 16.7418 65.0013 17.0798 65.3994 17.2129C65.7894 17.3471 66.2198 17.2511 66.5286 16.9644C67.8526 15.6956 69.6477 14.9166 71.6216 14.9166V13.8022Z" fill="white"/>
</svg>
