<svg width="201" height="201" viewBox="0 0 201 201" fill="none" xmlns="http://www.w3.org/2000/svg">
<circle cx="100.5" cy="100.5" r="100.5" fill="#90C7B6"/>
<path d="M100.9 189C149.556 189 189 149.556 189 100.9C189 52.2435 149.556 12.7998 100.9 12.7998C52.2435 12.7998 12.7998 52.2435 12.7998 100.9C12.7998 149.556 52.2435 189 100.9 189Z" fill="#E6E6E6"/>
<path fill-rule="evenodd" clip-rule="evenodd" d="M136.701 61.9212C137.921 64.0876 137.84 67.5057 136.765 71.7582C135.498 76.765 132.368 80.3596 129.271 80.7126C127.699 87.95 124.601 94.3368 120.493 99.1832C125.917 103.484 130.427 108.314 133.62 113.915C141.66 116.482 149.539 120.767 157.482 124.361C159.488 125.276 159.103 124.955 160.002 127.025C163.661 135.498 166.26 144.132 169.454 152.669C153.615 173.129 128.822 186.304 100.932 186.304C73.0092 186.304 48.1678 173.081 32.3291 152.541C36.02 144.677 38.2024 135.226 42.118 126.945C43.1932 124.698 42.8401 125.051 45.0707 124.073C52.7253 120.735 59.9466 116.932 68.2591 114.316C71.934 108.025 76.5877 103.067 82.3487 99.6485C78.032 94.7541 74.8225 88.2228 73.1857 80.7287C69.912 80.7929 66.4458 77.0859 65.0978 71.7582C64.0226 67.5057 63.9584 64.0876 65.162 61.9212C65.8039 60.7979 66.5742 60.2362 67.3926 60.0597C62.5784 42.889 68.2591 30.9658 80.4551 23.8087C97.4814 10.8585 119.193 11.9818 132.272 30.0832C138.402 38.5723 139.397 51.1695 136.701 61.9212Z" fill="#1A1617"/>
<path fill-rule="evenodd" clip-rule="evenodd" d="M100.578 15.3677C93.6779 16.154 86.7454 19.0104 80.4548 23.8086C68.2588 30.9657 62.5781 42.8889 67.3923 60.0596C69.2698 59.6584 71.372 61.3434 72.383 63.253C72.6077 63.7023 72.8323 64.4084 72.7521 64.9059C72.8484 67.1686 73.1372 69.4312 73.6347 71.5174C73.7952 72.1914 75.0469 72.8975 74.8864 71.8704C74.2927 68.1153 74.758 63.7023 74.1322 60.1559L73.5545 56.9945C75.6888 48.5215 79.9253 41.3323 85.4295 36.5662C90.3882 42.0063 96.2294 46.5156 103.932 47.334C117.219 48.7622 124.858 53.079 128.822 60.1559C128.196 63.7023 128.645 68.1153 128.067 71.8704C127.907 72.8975 129.159 72.1914 129.319 71.5174C129.817 69.4312 129.672 67.1846 129.768 64.9219C129.544 64.1196 129.528 63.1888 129.961 62.4988C131.485 60.0435 134.839 58.5832 136.701 61.9211C139.397 51.1693 138.402 38.5722 132.272 30.0831C125.869 21.225 117.396 16.4268 108.409 15.3677H100.578Z" fill="#3D3D3D"/>
<path fill-rule="evenodd" clip-rule="evenodd" d="M66.1895 60.653C65.8204 60.9579 65.4834 61.3751 65.1625 61.9207C63.9589 64.0871 64.0231 67.5052 65.0983 71.7578C66.0291 75.3845 67.9226 78.273 70.089 79.7173C71.084 80.3913 72.1431 80.7603 73.1862 80.7282C74.823 88.2224 78.0325 94.7536 82.3492 99.6481C81.8197 101.189 81.3222 103.291 80.8729 105.393C86.6339 114.315 93.5342 119.515 100.932 119.515C108.731 119.515 115.952 113.77 121.89 103.997C121.36 101.847 120.847 100.113 120.494 99.1827C124.602 94.3364 127.699 87.9496 129.272 80.7122C130.122 80.6159 130.973 80.2629 131.791 79.7173C133.958 78.273 135.851 75.3845 136.766 71.7578C137.841 67.5052 137.921 64.0871 136.702 61.9207C136.397 61.3751 136.06 60.9579 135.691 60.653C133.797 59.0804 131.229 60.4444 129.962 62.4984C129.528 63.1885 129.545 64.1192 129.769 64.9216C129.673 67.1843 129.817 69.4309 129.32 71.5171C129.159 72.1911 127.908 72.8971 128.068 71.8701C128.646 68.115 128.197 63.702 128.822 60.1555C124.859 53.0786 117.22 48.7619 103.933 47.3337C96.2302 46.5153 90.3889 42.006 85.4303 36.5659C79.9261 41.332 75.6896 48.5212 73.5553 56.9942L74.133 60.1555C74.7588 63.702 74.2934 68.115 74.8872 71.8701C75.0477 72.8971 73.796 72.1911 73.6355 71.5171C73.138 69.4309 72.8492 67.1682 72.7529 64.9056C72.8331 64.4081 72.6085 63.702 72.3838 63.2527C71.3728 61.343 69.2706 59.6581 67.3931 60.0592C66.9758 60.1395 66.5747 60.3321 66.1895 60.653Z" fill="#F6D5B8"/>
<path fill-rule="evenodd" clip-rule="evenodd" d="M72.9286 78.9956C72.2867 76.0589 71.9337 73.0902 71.8695 70.1053C71.8213 68.1957 71.8855 66.27 72.062 64.3604C71.9016 64.1357 71.7411 63.9271 71.5485 63.7185C70.9227 63.0606 69.7994 62.21 68.7884 62.3063C68.0341 62.3545 67.5367 62.9643 67.2157 63.5259C65.948 65.7886 66.7985 69.5918 67.4885 71.9026C68.0823 73.8765 69.1254 75.9305 70.6659 77.439C71.2597 78.0327 72.062 78.6425 72.9286 78.9956ZM129.335 78.9956C129.977 76.0589 130.33 73.0902 130.394 70.1053C130.458 68.1957 130.378 66.27 130.202 64.3604C130.362 64.1357 130.523 63.9271 130.715 63.7185C131.341 63.0606 132.464 62.21 133.475 62.3063C134.229 62.3545 134.727 62.9643 135.048 63.5259C136.316 65.7886 135.465 69.5918 134.775 71.9026C134.197 73.8765 133.138 75.9305 131.598 77.439C131.004 78.0327 130.202 78.6425 129.335 78.9956Z" fill="#E6C6AA"/>
<path fill-rule="evenodd" clip-rule="evenodd" d="M82.3489 99.728C71.4688 130.266 94.7053 158.911 100.001 186.304C99.1344 186.287 98.2679 186.271 97.4013 186.223L62.3218 142.205L72.3353 134.358C70.1529 131.309 66.0929 129.849 64.2956 126.704C65.9806 122.724 65.8522 118.199 68.2593 114.395C71.9341 108.105 76.5879 103.146 82.3489 99.728ZM122.355 100.723C126.961 104.622 130.796 108.971 133.62 113.914C134.037 114.042 134.439 114.187 134.84 114.315L134.888 114.395C137.295 118.199 137.167 122.724 138.852 126.704C137.054 129.849 133.01 131.309 130.812 134.358L140.825 142.205L105.81 186.175C104.928 186.223 104.045 186.255 103.146 186.271C108.458 158.895 131.678 130.25 120.798 99.728C121.328 100.049 121.841 100.37 122.355 100.723Z" fill="#383032"/>
<path fill-rule="evenodd" clip-rule="evenodd" d="M120.494 99.1829C120.574 99.0866 112.888 107.848 101.301 107.848C93.2295 107.848 82.3975 99.6964 82.3975 99.7125L82.0605 101.141C84.1146 103.532 86.4254 105.441 88.9609 106.966C92.716 109.213 96.9685 110.609 101.59 111.379C106.035 112.117 110.833 112.278 115.84 112.053C117.975 109.822 119.997 107.11 121.89 103.997C121.377 101.863 120.847 100.114 120.494 99.1829Z" fill="#E6C6AA"/>
<path fill-rule="evenodd" clip-rule="evenodd" d="M100.931 119.515C93.5336 119.515 86.6333 114.316 80.8723 105.393C81.3216 103.291 81.8191 101.189 82.3486 99.6485C75.3038 119.419 82.5573 138.387 89.9872 156.745C94.0472 166.775 98.1553 176.612 100.017 186.304H100.931C101.67 186.304 102.408 186.288 103.13 186.272C104.863 177.334 108.506 168.235 112.245 159.008C119.964 139.943 128.132 120.221 120.798 99.6485C121.183 99.8892 121.552 100.114 121.937 100.355C121.456 99.9694 120.975 99.5682 120.493 99.1831C120.846 100.114 121.36 101.847 121.889 103.997C119.996 107.111 117.974 109.823 115.839 112.053C111.282 116.851 106.243 119.515 100.931 119.515Z" fill="white"/>
<path fill-rule="evenodd" clip-rule="evenodd" d="M101.028 121.168L91.737 135.98L94.8662 140.489L89.9878 156.793C94.0317 166.807 98.1399 176.628 100.001 186.304H100.932C101.67 186.304 102.408 186.288 103.147 186.272C104.88 177.35 108.506 168.283 112.245 159.056C112.743 157.708 106.95 140.698 106.95 140.698L110.079 135.193L101.028 121.168Z" fill="#F23034"/>
<path fill-rule="evenodd" clip-rule="evenodd" d="M101.029 121.489L86.5538 141.131L80.3916 126.849C82.1247 137.055 86.0724 147.068 90.0521 156.905L94.8663 140.81L91.7371 136.3L101.029 121.489ZM115.6 141.42L101.029 121.489L110.079 135.514L106.95 141.018C106.95 141.018 112.037 155.958 112.262 158.943C116.643 148.176 121.136 137.183 122.901 125.95L115.6 141.42Z" fill="#E6E6E6"/>
<path fill-rule="evenodd" clip-rule="evenodd" d="M103.932 47.3337C96.2296 46.5153 90.3884 42.006 85.4297 36.5659C79.9255 41.332 75.689 48.5212 73.5547 56.9942C77.4863 50.9604 80.0378 43.2256 85.3495 38.9088C92.5227 53.6403 117.557 48.2163 128.822 60.1555C124.858 53.0787 117.22 48.7619 103.932 47.3337Z" fill="#E6C6AA"/>
</svg>
