<svg width="58" height="50" viewBox="0 0 58 50" fill="none" xmlns="http://www.w3.org/2000/svg">
<path fill-rule="evenodd" clip-rule="evenodd" d="M28.5686 32.8148H29.6823V1.11515C29.6823 0.569253 29.2913 0.106932 28.7545 0.0160316C28.2167 -0.0755684 27.6952 0.232926 27.5158 0.748026L20.2699 21.5253C20.1545 21.8559 20.2 22.2167 20.3941 22.5082L27.6402 33.4314C27.9106 33.84 28.4191 34.0236 28.8902 33.8823C29.3604 33.74 29.6823 33.3064 29.6823 32.8148H28.5686L29.4961 32.199L22.5565 21.7373L27.4533 7.69401L27.4539 32.8148H28.5686L29.4961 32.199L28.5686 32.8148Z" fill="white"/>
<path fill-rule="evenodd" clip-rule="evenodd" d="M28.5686 32.8142L28.0105 31.8493L0.557442 47.6999C0.0854416 47.972 -0.119263 48.5423 0.0701369 49.0532C0.260237 49.5641 0.788255 49.8606 1.32355 49.7591L22.9392 45.6456C23.2827 45.5805 23.5729 45.3604 23.7287 45.0477L29.566 33.3107C29.7846 32.8703 29.6896 32.3391 29.3311 32.0028C28.9729 31.6657 28.4361 31.6039 28.0105 31.8493L28.5686 32.8142L27.5703 32.3179L21.9791 43.5596L7.37031 46.3393L29.1258 33.7792L28.5686 32.8142L27.5703 32.3179L28.5686 32.8142Z" fill="white"/>
<path fill-rule="evenodd" clip-rule="evenodd" d="M28.5685 32.8151L28.011 33.7801L55.4642 49.6301C55.9361 49.9021 56.5323 49.795 56.8791 49.3759C57.2268 48.9557 57.2212 48.349 56.8653 47.9371L42.4947 31.2742C42.2656 31.0093 41.9309 30.868 41.5816 30.8899L28.4986 31.7032C28.0079 31.7339 27.596 32.0825 27.4831 32.5609C27.3702 33.0394 27.5854 33.5341 28.011 33.7801L28.5685 32.8151L28.6374 33.9273L41.1673 33.1483L50.8802 44.4092L29.1249 31.8502L28.5685 32.8151L28.6374 33.9273L28.5685 32.8151Z" fill="white"/>
</svg>
