<svg width="46" height="40" viewBox="0 0 46 40" fill="none" xmlns="http://www.w3.org/2000/svg">
<path fill-rule="evenodd" clip-rule="evenodd" d="M22.6945 26.0333H23.809V1.11414C23.809 0.569936 23.4183 0.10687 22.8813 0.0158698C22.3445 -0.0751302 21.8231 0.232727 21.6434 0.746827L15.9475 17.0818C15.8321 17.4116 15.8776 17.7721 16.0709 18.0646L21.766 26.6492C22.0383 27.0586 22.5467 27.2421 23.0171 27.1C23.4874 26.9587 23.809 26.5257 23.809 26.0333H22.6945L23.6239 25.4178L18.2341 17.2922L21.5809 7.69544V26.0333H22.6945L23.6239 25.4178L22.6945 26.0333Z" fill="white"/>
<path fill-rule="evenodd" clip-rule="evenodd" d="M22.6942 26.0337L22.1378 25.0688L0.557997 37.5297C0.0851972 37.8018 -0.119482 38.372 0.0704178 38.8821C0.259818 39.3932 0.787688 39.6904 1.32219 39.5889L18.3151 36.3559C18.6594 36.2902 18.9488 36.0707 19.1046 35.7573L23.6935 26.5301C23.9119 26.0906 23.816 25.5586 23.4587 25.2223C23.1004 24.886 22.5634 24.8234 22.1378 25.0688L22.6942 26.0337L21.6968 25.5376L17.355 34.269L7.36922 36.169L23.2514 26.9989L22.6942 26.0337L21.6968 25.5376L22.6942 26.0337Z" fill="white"/>
<path fill-rule="evenodd" clip-rule="evenodd" d="M22.6943 26.034L22.1379 26.9992L43.7195 39.4602C44.1906 39.7323 44.7876 39.625 45.1344 39.205C45.4821 38.7849 45.4758 38.179 45.1208 37.7671L33.8238 24.667C33.5949 24.4021 33.2601 24.2608 32.9109 24.2836L22.6252 24.9221C22.1356 24.9528 21.7228 25.3005 21.61 25.7798C21.4979 26.2583 21.7132 26.7538 22.1379 26.9992L22.6943 26.034L22.7642 27.1463L32.4973 26.5418L39.1356 34.2392L23.2515 25.0691L22.6943 26.034L22.7642 27.1463L22.6943 26.034Z" fill="white"/>
</svg>
