<svg width="59" height="47" viewBox="0 0 59 47" fill="none" xmlns="http://www.w3.org/2000/svg">
<path fill-rule="evenodd" clip-rule="evenodd" d="M1.1425 14.2276L0.0548096 14.4689C0.50821 16.5167 1.3677 19.8545 2.1174 22.6969C2.8663 25.5359 3.50311 27.8705 3.50391 27.8729C3.63241 28.3433 4.05061 28.6746 4.53821 28.6933C4.54321 28.6933 18.8169 29.2133 27.7206 29.3009L27.732 28.1864L26.6266 28.0474L24.638 43.9225L25.7436 44.0615L24.6761 43.7431C24.6135 43.9518 24.5786 44.1744 24.5786 44.4075C24.5779 45.0469 24.841 45.6374 25.2611 46.0558C25.6802 46.4766 26.2699 46.7396 26.9109 46.739H30.7166C31.6124 46.7381 32.4306 46.2256 32.8179 45.4148V45.4168L40.8931 28.6158L39.8884 28.1331L39.8989 29.2475L40.5261 29.2415H40.5291C41.4374 29.2301 45.7418 29.157 49.9187 28.5096C52.012 28.1824 54.068 27.7224 55.7195 27.0011C56.5446 26.6364 57.2775 26.2076 57.864 25.6316C58.1563 25.344 58.4107 25.015 58.599 24.6383C58.7866 24.2636 58.9037 23.8389 58.9225 23.4002L57.8095 23.3499L58.9191 23.453C58.9271 23.3629 58.9313 23.2719 58.9313 23.181C58.9293 22.3824 58.6308 21.4377 57.8956 20.5586C57.2425 19.783 56.3555 19.1607 55.2752 18.6458C53.6513 17.8731 51.5677 17.3266 48.9967 16.9497C46.4266 16.5759 43.3681 16.3794 39.8167 16.355L39.8097 17.4688L40.8023 16.9625L32.7929 1.27029C32.3932 0.490394 31.5932 0 30.7167 0H26.9255C26.2506 0 25.6144 0.291381 25.1725 0.794281L25.1705 0.797302C24.7984 1.2231 24.596 1.76729 24.596 2.32849C24.596 2.43169 24.603 2.53739 24.6173 2.64209L24.6165 2.64011L26.4849 16.6223L11.3092 17.4103L11.3675 18.524L12.2343 17.8237C11.3627 16.7451 9.2628 14.1756 7.6156 12.4049L7.6176 12.4079C7.1732 11.9269 6.55341 11.6622 5.90941 11.6622C5.19531 11.6622 4.64631 11.6542 4.09711 11.6476H4.09911C3.55641 11.6406 3.0162 11.6337 2.3322 11.6337C1.6279 11.6329 0.957004 11.9513 0.513504 12.5054C0.177204 12.9245 0 13.4411 0 13.9659C0 14.1316 0.0179109 14.299 0.0537109 14.4639L0.0547028 14.4679L1.14241 14.2266L2.23181 13.9903L2.22881 13.9659L2.25241 13.8985L2.332 13.8618C2.9998 13.8618 3.52601 13.8688 4.06961 13.8766H4.0704C4.6163 13.8836 5.1784 13.8911 5.9095 13.8911L5.98181 13.9204L5.9848 13.9224C7.5502 15.6046 9.6469 18.165 10.4998 19.2227C10.7247 19.5013 11.0675 19.654 11.4249 19.6354L27.806 18.7848C28.1164 18.7686 28.4073 18.6225 28.6063 18.3836C28.8036 18.1455 28.8946 17.8321 28.8523 17.5242L26.8263 2.34369L26.8253 2.3407V2.32849L26.8512 2.26111L26.8482 2.26511L26.9261 2.22849H30.7173L30.8082 2.28281L38.8176 17.9751C39.0061 18.3464 39.3862 18.5803 39.8029 18.5829C44.4388 18.6144 48.1674 18.9508 50.9268 19.5609C52.3053 19.8654 53.44 20.2375 54.3173 20.6566C55.1964 21.0742 55.8088 21.5364 56.1881 21.9905C56.6031 22.4826 56.704 22.9457 56.704 23.1806L56.701 23.2471L56.697 23.3C56.691 23.4202 56.6646 23.5226 56.6061 23.6426C56.4989 23.8629 56.2396 24.1537 55.7921 24.446C55.0148 24.9626 53.7224 25.4379 52.2333 25.793C49.9955 26.3332 47.3148 26.6408 45.076 26.8083C42.8357 26.9757 41.0307 27.0073 40.5067 27.0121H40.5097L39.8808 27.0181C39.4544 27.0211 39.0711 27.2651 38.8858 27.6493L30.8105 44.4505L30.8095 44.4515L30.7186 44.5083H26.9129L26.8089 44.406L26.8139 44.3784L26.852 44.199L28.8398 28.3231C28.8796 28.007 28.7838 27.6911 28.5743 27.4514C28.3645 27.2118 28.064 27.073 27.7456 27.0705C23.321 27.0275 17.5372 26.8755 12.8624 26.735C10.5246 26.6634 8.4646 26.596 6.9877 26.5465C5.5118 26.4962 4.624 26.4637 4.6214 26.4637L4.58081 27.5774L5.6557 27.284C5.6557 27.283 5.49791 26.7032 5.24541 25.7675C4.48981 22.9643 2.88971 16.9548 2.23331 13.9858L2.2341 13.9898L1.1447 14.2261L1.1425 14.2276Z" fill="white"/>
<path fill-rule="evenodd" clip-rule="evenodd" d="M14.5633 24.4839H17.1358C17.7524 24.4839 18.2504 23.985 18.2504 23.3694C18.2504 22.7537 17.7524 22.2549 17.1358 22.2549H14.5633C13.9476 22.2549 13.4487 22.7537 13.4487 23.3694C13.4487 23.985 13.9476 24.4839 14.5633 24.4839Z" fill="white"/>
<path fill-rule="evenodd" clip-rule="evenodd" d="M23.3292 24.4839H25.9035C26.5191 24.4839 27.0172 23.985 27.0172 23.3694C27.0172 22.7537 26.5191 22.2549 25.9035 22.2549H23.3292C22.7143 22.2549 22.2148 22.7537 22.2148 23.3694C22.2148 23.985 22.7143 24.4839 23.3292 24.4839Z" fill="white"/>
<path fill-rule="evenodd" clip-rule="evenodd" d="M32.0955 24.4839H34.6699C35.2848 24.4839 35.7843 23.985 35.7843 23.3694C35.7843 22.7537 35.2848 22.2549 34.6699 22.2549H32.0955C31.4806 22.2549 30.9819 22.7537 30.9819 23.3694C30.9819 23.985 31.4806 24.4839 32.0955 24.4839Z" fill="white"/>
<path fill-rule="evenodd" clip-rule="evenodd" d="M40.8632 24.4839H43.4365C44.0514 24.4839 44.5503 23.985 44.5503 23.3694C44.5503 22.7537 44.0514 22.2549 43.4365 22.2549H40.8632C40.2474 22.2549 39.7485 22.7537 39.7485 23.3694C39.7485 23.985 40.2474 24.4839 40.8632 24.4839Z" fill="white"/>
<path fill-rule="evenodd" clip-rule="evenodd" d="M49.6296 24.4839H52.203C52.8177 24.4839 53.3175 23.985 53.3175 23.3694C53.3175 22.7537 52.8177 22.2549 52.203 22.2549H49.6296C49.0138 22.2549 48.5151 22.7537 48.5151 23.3694C48.5151 23.985 49.0138 24.4839 49.6296 24.4839Z" fill="white"/>
</svg>
