<svg width="201" height="201" viewBox="0 0 201 201" fill="none" xmlns="http://www.w3.org/2000/svg">
<circle cx="100.5" cy="100.5" r="100.5" fill="#90C7B6"/>
<path d="M100.9 189C149.556 189 189 149.556 189 100.9C189 52.2435 149.556 12.7998 100.9 12.7998C52.2435 12.7998 12.7998 52.2435 12.7998 100.9C12.7998 149.556 52.2435 189 100.9 189Z" fill="white"/>
<path fill-rule="evenodd" clip-rule="evenodd" d="M73.667 115.375C73.3621 115.616 72.9128 115.712 71.7574 116.113C65.6915 118.215 59.6577 120.703 53.6559 123.639C49.8688 125.485 50.2379 124.811 48.601 128.646C44.3806 138.467 40.3687 148.737 37.416 158.607C47.3493 169.31 59.9626 177.494 74.1805 182.1C79.5243 183.544 85.0767 184.732 90.7414 185.71C93.7904 186.064 96.9036 186.272 100.049 186.304H101.991C105.056 186.256 108.073 186.064 111.057 185.71C116.706 184.732 122.274 183.544 127.618 182.1C141.836 177.494 154.433 169.31 164.383 158.607C161.43 148.737 157.418 138.467 153.198 128.646C151.561 124.811 151.93 125.485 148.127 123.639C142.141 120.703 136.107 118.215 130.041 116.113C129.223 115.824 128.774 115.696 128.453 115.567L128.372 115.375C127.217 113.385 125.853 111.54 124.296 109.806C131.662 110.32 137.648 108.491 141.403 103.949C145.03 99.5362 145.238 96.2625 145.431 90.9187C145.8 80.4398 144.998 69.1746 142.109 58.6796C139.301 48.4253 134.519 38.9092 126.928 31.5916C119.659 24.595 111.17 19.0747 100.899 19.0747C93.662 19.0747 87.3875 20.4066 82.9584 27.4193C78.5935 26.8577 76.2185 28.7994 73.314 31.5916C65.7236 38.9092 60.9414 48.4253 58.1332 58.6796C55.2446 69.1746 54.4423 80.4398 54.8114 90.9187C55.0039 96.2625 55.1965 99.5362 58.8392 103.949C62.8511 108.812 69.4305 110.561 77.5023 109.678H77.5986C76.1062 111.379 74.8064 113.289 73.667 115.375Z" fill="#1A1617"/>
<path fill-rule="evenodd" clip-rule="evenodd" d="M77.5024 109.694C79.0911 107.993 80.9847 106.404 83.103 104.896L84.2102 99.7604C80.3749 95.2992 77.4864 89.3296 76.0421 82.5095C73.1376 82.5737 70.0725 79.1877 68.885 74.3414C67.9222 70.49 67.858 67.3768 68.9331 65.403C70.7625 62.0491 74.0362 64.1353 75.336 66.6226C76.5396 56.4486 80.8563 47.7188 86.9062 42.359C91.2871 47.3016 96.4704 51.3937 103.291 52.1479C116.337 53.5922 123.237 58.2298 126.383 65.9326C127.859 63.7822 130.699 62.3701 132.368 65.403C133.427 67.3768 133.363 70.49 132.416 74.3414C131.293 78.8988 128.517 82.1725 125.773 82.4774C124.361 89.0729 121.633 94.866 117.99 99.279L117.91 99.7604L119.081 105.168C120.911 106.404 122.74 107.961 124.216 109.838C131.614 110.368 137.632 108.538 141.403 103.981C145.03 99.5678 145.238 96.2942 145.431 90.9504C145.8 80.4715 144.998 69.1902 142.109 58.6952C139.301 48.441 134.519 38.9249 126.928 31.6233C119.659 24.6267 111.17 19.0903 100.899 19.0903C93.6621 19.0903 87.3876 20.4383 82.9585 27.435C78.5937 26.8733 76.2187 28.8311 73.3141 31.6233C65.7237 38.9249 60.9416 48.441 58.1333 58.6952C55.2448 69.1902 54.4424 80.4715 54.8115 90.9504C55.004 96.2942 55.1966 99.5678 58.8394 103.981C62.8512 108.843 69.4306 110.592 77.5024 109.694Z" fill="#3D3D3D"/>
<path fill-rule="evenodd" clip-rule="evenodd" d="M126.383 65.9325C127.859 63.7821 130.7 62.3699 132.369 65.4029C133.428 67.3767 133.364 70.4899 132.417 74.3413C131.293 78.8987 128.517 82.1724 125.773 82.4773C124.361 89.0728 121.633 94.8658 117.99 99.2789L117.91 99.7603L119.033 104.911L118.937 104.895C119.033 105.2 119.13 105.489 119.21 105.778L119.258 105.955C119.643 107.367 120.012 108.859 120.333 110.448C122.564 123.238 117.99 135.209 112.598 147.614C109.613 150.791 105.136 153.246 101.06 153.07C96.92 153.246 92.3465 150.711 89.3777 147.437C84.3549 135.899 80.0702 124.714 81.354 112.887C81.7392 110.4 82.2848 108.057 82.8785 105.955L83.1032 104.895L84.2104 99.7603C80.3751 95.2991 77.4866 89.3295 76.0423 82.5094C73.1378 82.5736 70.0727 79.1876 68.8852 74.3413C67.9224 70.4899 67.8582 67.3767 68.9334 65.4029C70.7628 62.049 74.0364 64.1352 75.3363 66.6225C76.5398 56.4485 80.8565 47.7187 86.9064 42.3589C91.2873 47.3015 96.4706 51.3936 103.291 52.1478C116.337 53.592 123.238 58.2297 126.383 65.9325Z" fill="#F6D5B8"/>
<path fill-rule="evenodd" clip-rule="evenodd" d="M75.8177 81.4185C75.24 78.7546 74.9351 76.0586 74.8709 73.3466C74.8228 71.5975 74.887 69.8644 75.0474 68.1152C74.903 67.9226 74.7586 67.7301 74.5821 67.5375C74.0364 66.9437 73.0415 66.1735 72.1429 66.2376C71.4689 66.3018 71.0356 66.8474 70.7628 67.361C69.6234 69.415 70.3776 72.8652 70.9874 74.9674C71.517 76.7647 72.4478 78.6262 73.8118 80.0063C74.3413 80.5519 75.0474 81.0975 75.8177 81.4185ZM125.821 81.4185C126.399 78.7546 126.704 76.0586 126.768 73.3466C126.816 71.5975 126.752 69.8644 126.592 68.1152C126.736 67.9226 126.88 67.7301 127.057 67.5375C127.603 66.9437 128.597 66.1735 129.496 66.2376C130.17 66.3018 130.603 66.8474 130.892 67.361C132.016 69.415 131.261 72.8652 130.652 74.9674C130.122 76.7647 129.191 78.6262 127.827 80.0063C127.298 80.5519 126.608 81.0975 125.821 81.4185Z" fill="#E6C6AA"/>
<path fill-rule="evenodd" clip-rule="evenodd" d="M119.033 104.912L117.91 99.7607L117.99 99.2793C113.432 104.8 107.447 108.153 100.899 108.153C94.5446 108.153 88.7194 104.992 84.2101 99.7607L83.8892 101.221C85.7667 103.757 87.917 105.762 90.3081 107.335C93.5336 109.437 97.1764 110.753 101.156 111.475C105.28 112.23 109.758 112.342 114.459 112.053C115.679 111.973 115.486 111.764 115.807 112.968C119.707 128.261 113.063 153.198 89.5218 147.598C92.4905 150.791 96.9838 153.247 101.06 153.07C105.136 153.247 109.613 150.791 112.598 147.614C118.439 134.166 123.879 119.595 119.033 104.912Z" fill="#E6C6AA"/>
<path fill-rule="evenodd" clip-rule="evenodd" d="M126.383 65.9325C123.237 58.2297 116.337 53.592 103.29 52.1478C96.4703 51.3936 91.287 47.3015 86.9061 42.3589C80.8562 47.7187 76.5395 56.4485 75.3359 66.6064C78.8182 59.4172 81.5623 51.1689 86.7296 46.0979C93.4374 61.9688 116.241 52.0194 126.383 65.9325Z" fill="#E6C6AA"/>
<path fill-rule="evenodd" clip-rule="evenodd" d="M128.373 115.375C129.175 117.124 129.865 118.921 130.411 120.767C130.956 122.612 131.357 124.522 131.598 126.48C131.662 127.025 131.743 127.33 131.727 127.619C131.727 127.892 131.614 128.165 131.309 128.614C130.7 129.545 129.977 130.395 129.127 131.214C128.276 132.016 127.314 132.77 126.254 133.492L130.074 137.568L133.909 141.644L117.46 162.634L101.028 183.624L84.5794 162.634L68.1309 141.644L71.9662 137.568L75.7854 133.492C74.7263 132.77 73.7635 132.016 72.913 131.214C72.0785 130.395 71.3403 129.545 70.7305 128.614C70.4256 128.165 70.3133 127.892 70.3133 127.619C70.2973 127.33 70.3775 127.025 70.4417 126.48C70.6824 124.522 71.0836 122.612 71.6292 120.767C72.1748 118.921 72.8648 117.124 73.6672 115.375C74.8547 113.209 76.2027 111.235 77.7753 109.469C79.3319 107.704 81.0971 106.18 83.103 104.896C78.8826 117.67 82.0279 129.513 86.8902 141.548C91.7526 153.6 98.348 165.86 101.028 179.5C103.692 165.86 110.303 153.6 115.198 141.564C120.092 129.513 123.254 117.686 119.033 104.912C120.991 106.42 122.74 108.025 124.297 109.774C125.853 111.508 127.217 113.369 128.373 115.375Z" fill="#383032"/>
<path fill-rule="evenodd" clip-rule="evenodd" d="M101.028 179.5C103.242 168.138 108.185 157.739 112.598 147.614C109.613 150.791 105.136 153.246 101.06 153.07C96.9839 153.246 92.4906 150.791 89.5219 147.597C89.4737 147.549 89.4256 147.485 89.3774 147.437C93.7905 157.611 98.7812 168.074 101.028 179.5Z" fill="white"/>
</svg>

